<svg width="1024" height="1024" viewBox="0 0 1024 1024" fill="none" xmlns="http://www.w3.org/2000/svg">
  <defs>
    <linearGradient id="bg" x1="168" y1="128" x2="856" y2="896" gradientUnits="userSpaceOnUse">
      <stop offset="0" stop-color="#0b7285" />
      <stop offset="0.55" stop-color="#075e6e" />
      <stop offset="1" stop-color="#043742" />
    </linearGradient>
    <radialGradient id="shine" cx="0" cy="0" r="1" gradientUnits="userSpaceOnUse" gradientTransform="translate(332 256) rotate(90) scale(520)">
      <stop offset="0" stop-color="white" stop-opacity="0.62" />
      <stop offset="0.35" stop-color="white" stop-opacity="0.22" />
      <stop offset="1" stop-color="white" stop-opacity="0" />
    </radialGradient>
    <radialGradient id="ember" cx="0" cy="0" r="1" gradientUnits="userSpaceOnUse" gradientTransform="translate(780 260) rotate(120) scale(520)">
      <stop offset="0" stop-color="#b45309" stop-opacity="0.42" />
      <stop offset="0.5" stop-color="#b45309" stop-opacity="0.18" />
      <stop offset="1" stop-color="#b45309" stop-opacity="0" />
    </radialGradient>
    <filter id="softShadow" x="0" y="0" width="1024" height="1024" filterUnits="userSpaceOnUse" color-interpolation-filters="sRGB">
      <feDropShadow dx="0" dy="26" stdDeviation="30" flood-color="#071a22" flood-opacity="0.32" />
    </filter>
  </defs>

  <rect x="96" y="96" width="832" height="832" rx="220" fill="url(#bg)" />
  <rect x="96" y="96" width="832" height="832" rx="220" fill="url(#ember)" />
  <rect x="96" y="96" width="832" height="832" rx="220" fill="url(#shine)" />

  <g filter="url(#softShadow)">
    <!-- Shackle -->
    <path
      d="M352 448V368C352 279.6 423.6 208 512 208C600.4 208 672 279.6 672 368V448H620V368C620 308.3 571.7 260 512 260C452.3 260 404 308.3 404 368V448H352Z"
      fill="#ffffff"
      fill-opacity="0.92"
    />
    <!-- Body -->
    <rect x="304" y="448" width="416" height="344" rx="86" fill="#ffffff" fill-opacity="0.92" />
    <!-- Keyhole -->
    <circle cx="512" cy="636" r="72" fill="#043742" fill-opacity="0.56" />
    <rect x="472" y="688" width="80" height="140" rx="40" fill="#043742" fill-opacity="0.56" />
  </g>
</svg>
